<svg id="Layer_1" data-name="Layer 1" xmlns="http://www.w3.org/2000/svg" viewBox="0 0 323.33 187.33"><defs><style>.cls-1{fill:#031d44;}.cls-2{fill:#fff;}.cls-3{fill:#f9ff00;}.cls-4{fill:red;}.cls-5{fill:#0258d3;}</style></defs><title>HansGretaLogo</title><rect class="cls-1" width="323.33" height="187.33"/><path class="cls-2" d="M345.61,231.41q.83-3.1,2.66-8.71l-2.38.25q0-1.58,3-2.2,1.33-4.07,3.06-9l.27-.79a4.11,4.11,0,0,0,.23-1.33.64.64,0,0,0-.09-.4c-.06-.07-.2-.11-.41-.11a2.91,2.91,0,0,0-2.14,1.15,9.33,9.33,0,0,0-1.67,2.77,7.82,7.82,0,0,0-.65,2.84,3.84,3.84,0,0,0,.18,1.22,2.14,2.14,0,0,1-1.64-.56,2.1,2.1,0,0,1-.52-1.49,5.41,5.41,0,0,1,1.21-3.19,10.32,10.32,0,0,1,2.93-2.7,6,6,0,0,1,3.06-1.06,1.52,1.52,0,0,1,1.28.49,2,2,0,0,1,.38,1.24,5.49,5.49,0,0,1-.29,1.55l-2.81,9.14q1.3-.07,2.09-.07,2.81,0,6.12.32,1.11-3.71,2.14-6.77a42.92,42.92,0,0,1,1.49-4q.86-1.87,2-1.87-.72,1.91-1.75,5.44t-2,7.38q.36,0,1.15.07,1.08.07,1.55.07a3.29,3.29,0,0,1-1.4,1,5.87,5.87,0,0,1-1.62.2q-.76,3.1-1.12,4.93a45.74,45.74,0,0,0-1.19,8.71,11.64,11.64,0,0,0,.07,1.3,2.9,2.9,0,0,1-1.93-.77,3,3,0,0,1-.56-2,22.85,22.85,0,0,1,.86-5.44q.58-2.38,1.91-6.66-2.88,0-4.88.05t-3.51.2q-3.1,9.76-3.85,12.35a3.46,3.46,0,0,1-1.08,1.73,2.27,2.27,0,0,1-1.4.58Q344.78,234.5,345.61,231.41Z" transform="translate(-318.33 -186)"/><path class="cls-2" d="M363.93,235.26a11.49,11.49,0,0,1,1.49-4.39,77.13,77.13,0,0,1,4-6.88q-2.2-.18-3.89-.18h-1.26q.68-1.87,3.74-1.87a17.82,17.82,0,0,1,2.59.25q2.77-4.18,5.63-7.87a47.76,47.76,0,0,1,4.52-5.24,2.88,2.88,0,0,1,1.73-1,3.15,3.15,0,0,1,1.91,1.15q-.72.58-2.09,4.66a89.59,89.59,0,0,0-2.45,8.93,37.7,37.7,0,0,0-1.08,7.79,5.8,5.8,0,0,0,.31,2.16,1.05,1.05,0,0,0,1,.72q2,0,4.72-5.33l.36.36a14.33,14.33,0,0,1-2.79,4.75,4.77,4.77,0,0,1-3.44,1.8,2.25,2.25,0,0,1-2.12-1.28,7.59,7.59,0,0,1-.68-3.55,27.75,27.75,0,0,1,.61-5.36q-2.3-.36-5.33-.72-3.53,6.48-6.26,13A2.08,2.08,0,0,1,363.93,235.26Zm15-18.65a62.51,62.51,0,0,1,2.38-6.26,16.7,16.7,0,0,0-4,4.25,80.79,80.79,0,0,0-5,7.92q1.44.29,3,.72l1.62.4Q377.76,220.25,378.94,216.61Z" transform="translate(-318.33 -186)"/><path class="cls-2" d="M389.74,228.13q2.2-7.09,5-16.42a5.74,5.74,0,0,0,.25-1.48q0-.83-.54-.83a2.75,2.75,0,0,0-2.07,1.08,8.36,8.36,0,0,0-1.53,2.59,7.77,7.77,0,0,0-.58,2.74,4,4,0,0,0,.18,1.26,2.14,2.14,0,0,1-1.64-.56,2.09,2.09,0,0,1-.52-1.49,5.4,5.4,0,0,1,1.21-3.19,10.42,10.42,0,0,1,2.92-2.7,6,6,0,0,1,3.08-1.06,2.42,2.42,0,0,1,2.14,1.49,12.39,12.39,0,0,1,1.21,3.74q.4,2.25.83,6,.76,6.73,1.58,12.1.47-3.06,1.67-7.74t2.48-8.84q1.28-4.16,1.64-5a3.6,3.6,0,0,1,.9-1.17,2,2,0,0,1,1.37-.59q-1.3,3.42-3,9.36t-2.92,11.5a45.57,45.57,0,0,0-1.26,8.19,2.52,2.52,0,0,1-1.84-.67,4.14,4.14,0,0,1-1-2.25q-.47-2.52-1.53-9.59T396,212.8q-3.35,12.06-4.68,16.45a39.41,39.41,0,0,1-2.25,6.14q-.92,1.75-2,1.75Q387.69,234.86,389.74,228.13Z" transform="translate(-318.33 -186)"/><path class="cls-2" d="M411.74,236.41a6.21,6.21,0,0,1-2.75-2.18,6,6,0,0,1-1-3.55,4.47,4.47,0,0,1,1.4-3.69,5,5,0,0,1,3.2-1.13,7.41,7.41,0,0,0-1.48,2.3,6.73,6.73,0,0,0-.5,2.52,4.92,4.92,0,0,0,1.42,3.6,5.49,5.49,0,0,0,4.09,1.44,8.6,8.6,0,0,0,3.22-.61,6.09,6.09,0,0,0,2.5-1.8,4.35,4.35,0,0,0,1-2.84,4.52,4.52,0,0,0-.72-2.54,7,7,0,0,0-1.8-1.87q-1.08-.77-2.88-1.85a34.86,34.86,0,0,1-2.93-1.89,7.58,7.58,0,0,1-1.85-2,4.74,4.74,0,0,1-.76-2.66,8.7,8.7,0,0,1,1.3-4.34,10.94,10.94,0,0,1,3.65-3.76,9.63,9.63,0,0,1,5.31-1.51,3.76,3.76,0,0,1,2.88,1,3.72,3.72,0,0,1,.9,2.63,11.31,11.31,0,0,1-.86,4,22.58,22.58,0,0,1-1.91,3.89,1.4,1.4,0,0,1-1.19-1.55,5.25,5.25,0,0,1,.27-1.55q.27-.86.77-2.16t.81-2.29a5.42,5.42,0,0,0,.27-1.57,1.45,1.45,0,0,0-.45-1.15,2.39,2.39,0,0,0-1.57-.4,6.59,6.59,0,0,0-3.94,1.31,10.19,10.19,0,0,0-2.9,3.19,7,7,0,0,0-1.08,3.42,3.49,3.49,0,0,0,.63,2.05,6.46,6.46,0,0,0,1.57,1.57,27.85,27.85,0,0,0,2.56,1.57,32.72,32.72,0,0,1,3.13,2,8.1,8.1,0,0,1,2,2.23,5.88,5.88,0,0,1,.85,3.19,6.36,6.36,0,0,1-1.39,4.1,8.93,8.93,0,0,1-3.55,2.65,11.3,11.3,0,0,1-4.46.92A9.65,9.65,0,0,1,411.74,236.41Z" transform="translate(-318.33 -186)"/><path class="cls-2" d="M529.06,236.07a7.07,7.07,0,0,1-2.41-3.1,11.92,11.92,0,0,1-.88-4.77A21.17,21.17,0,0,1,528,219a24.35,24.35,0,0,1,5.74-7.79q3.47-3.08,6.79-3.08a3.39,3.39,0,0,1,2.83,1.15,4.53,4.53,0,0,1,.92,2.92,7.41,7.41,0,0,1-.43,2.48,5.51,5.51,0,0,1-1.17,2,2.16,2.16,0,0,1-1.57.77,1.23,1.23,0,0,1-1.12-.83,5,5,0,0,0,1.21-1.33,11.2,11.2,0,0,0,1.13-2.12,5.55,5.55,0,0,0,.47-2.05,1.88,1.88,0,0,0-.52-1.39,2.24,2.24,0,0,0-1.64-.52q-2.48,0-5.33,3.24a28.07,28.07,0,0,0-4.77,7.92,22.72,22.72,0,0,0-1.93,8.57A8.6,8.6,0,0,0,530,234a4.1,4.1,0,0,0,3.47,1.89,4.62,4.62,0,0,0,3.38-1.69,13.46,13.46,0,0,0,2.61-4.25,16.67,16.67,0,0,0,1.21-5,17.21,17.21,0,0,0-3.71-.47l-2.2,0a2.24,2.24,0,0,1,2.45-1.87,6.34,6.34,0,0,1,1.75.25q.88.25,2.43.79a11.86,11.86,0,0,0,1.91.65l-.25,1.15a44,44,0,0,0-1.73,5.31,15.51,15.51,0,0,0-.47,3.47q0,.57.07,1.66.07.72.07,1.15a2.65,2.65,0,0,1-1.94-2.59,5.91,5.91,0,0,1,.25-1.66q-3.06,4.25-6.8,4.25A5.89,5.89,0,0,1,529.06,236.07Z" transform="translate(-318.33 -186)"/><path class="cls-2" d="M558.17,236a43.22,43.22,0,0,1-3.8-5.76,62.61,62.61,0,0,1-3.08-6.17q-.83,2.77-1.94,6.84-.61,2.3-1.76,6.26a2.75,2.75,0,0,1-1.66-.52,1.54,1.54,0,0,1-.72-1.28,7.36,7.36,0,0,1,.5-2q2.41-7.49,4.43-12.91T554.82,209a10.32,10.32,0,0,0-2.36.63q-1,.41-2.14,1a2.71,2.71,0,0,1-.86.4,1.25,1.25,0,0,1-.68-.36c-.29-.24-.43-.44-.43-.61a21,21,0,0,1,8.1-2,13.18,13.18,0,0,1,4.32.72A8,8,0,0,1,564.2,211a5.46,5.46,0,0,1,1.35,3.78,5.63,5.63,0,0,1-2.57,5,14.58,14.58,0,0,1-5.62,2.3,29.62,29.62,0,0,1-5.24.56l.67,1.19.56,1q1.55,2.77,2.72,4.57a33.93,33.93,0,0,0,2.92,3.8,35.62,35.62,0,0,0,4.19,4,2,2,0,0,1-.77.83,2,2,0,0,1-1.06.36Q560.07,238.36,558.17,236Zm-.9-15a10.58,10.58,0,0,0,4.21-2.63,6,6,0,0,0,1.66-4.28,4.44,4.44,0,0,0-1.85-4,8.06,8.06,0,0,0-4.59-1.24A88.35,88.35,0,0,0,551.87,222,19.94,19.94,0,0,0,557.27,221Z" transform="translate(-318.33 -186)"/><path class="cls-2" d="M567.33,236.25a6.27,6.27,0,0,1-2.47-2.38,6.46,6.46,0,0,1-.86-3.29,8,8,0,0,1,1.26-4.25,10.81,10.81,0,0,1,3.4-3.44,10.37,10.37,0,0,1,4.66-1.64,7.23,7.23,0,0,1-2.05-2.61,7.28,7.28,0,0,1,.29-6.71,7.57,7.57,0,0,1,2.66-2.77,7.06,7.06,0,0,1,3.78-1,4.25,4.25,0,0,1,3,1,3.78,3.78,0,0,1,1.06,2.88,7.3,7.3,0,0,1-.47,2.56,6.94,6.94,0,0,1-1.15,2.07,1.83,1.83,0,0,1-1.26.81,1.12,1.12,0,0,1-.76-.32,2.33,2.33,0,0,1-.58-.83q3-2.63,3-5a2.26,2.26,0,0,0-.65-1.73,2.68,2.68,0,0,0-1.91-.61,4.3,4.3,0,0,0-3.78,2.07,9.18,9.18,0,0,0-1.37,5.17,6.79,6.79,0,0,0,2.09,5.44,9.19,9.19,0,0,0-4.12,1.8,10,10,0,0,0-2.83,3.37,8.49,8.49,0,0,0-1,3.91,6.09,6.09,0,0,0,1.13,3.64,4,4,0,0,0,3.47,1.58,7.68,7.68,0,0,0,3.74-1.06,13.56,13.56,0,0,0,3.49-2.83,15.58,15.58,0,0,0,2.56-3.85l.5.36a19.57,19.57,0,0,1-4.9,6.25,9.78,9.78,0,0,1-6.34,2.36A7.52,7.52,0,0,1,567.33,236.25Z" transform="translate(-318.33 -186)"/><path class="cls-2" d="M586.39,236.47a2.6,2.6,0,0,1-.65-1.89,8.33,8.33,0,0,1,.34-2.18q.34-1.24,1-3.08,1.51-4.35,3.56-9.72t3.78-9.07q-3.89.07-5.83.2a41,41,0,0,0-4.25.52q.14-1.69,2.45-2.43a21.58,21.58,0,0,1,6.34-.74,66.54,66.54,0,0,1,6.95.43q1.19.14,2.41.25t2.23.11a6,6,0,0,1-2.63,1.35,15.82,15.82,0,0,1-3.53.34l-2.56,0a164.07,164.07,0,0,0-5.65,17.17l-.32,1.19q-.83,3-1.15,4.52a13.83,13.83,0,0,0-.32,2.93,6.3,6.3,0,0,0,0,.79A3,3,0,0,1,586.39,236.47Z" transform="translate(-318.33 -186)"/><path class="cls-2" d="M597.08,235.26a11.49,11.49,0,0,1,1.49-4.39,77.15,77.15,0,0,1,4-6.88q-2.2-.18-3.89-.18h-1.26q.68-1.87,3.74-1.87a17.82,17.82,0,0,1,2.59.25q2.77-4.18,5.63-7.87a47.72,47.72,0,0,1,4.52-5.24,2.88,2.88,0,0,1,1.73-1,3.15,3.15,0,0,1,1.91,1.15q-.72.58-2.09,4.66a89.86,89.86,0,0,0-2.45,8.93,37.69,37.69,0,0,0-1.08,7.79,5.8,5.8,0,0,0,.31,2.16,1.05,1.05,0,0,0,1,.72q2,0,4.72-5.33l.36.36a14.33,14.33,0,0,1-2.79,4.75,4.76,4.76,0,0,1-3.44,1.8A2.25,2.25,0,0,1,610,233.8a7.59,7.59,0,0,1-.68-3.55,27.79,27.79,0,0,1,.61-5.36q-2.3-.36-5.33-.72-3.53,6.48-6.26,13A2.08,2.08,0,0,1,597.08,235.26Zm15-18.65a62.51,62.51,0,0,1,2.38-6.26,16.71,16.71,0,0,0-4,4.25,80.7,80.7,0,0,0-5,7.92q1.44.29,3,.72l1.62.4Q610.91,220.25,612.09,216.61Z" transform="translate(-318.33 -186)"/><path class="cls-2" d="M401.87,313h.32l4.92,10.74a3.37,3.37,0,0,0,.53.83,1.74,1.74,0,0,0,.66.47,2.34,2.34,0,0,0,.87.15h.32v.34h-7.1v-.34h.93a2.06,2.06,0,0,0,1-.19.63.63,0,0,0,.32-.58,1.82,1.82,0,0,0-.13-.6q-.13-.35-.56-1.27l-.08-.18-.11-.24-.2-.45h-5.18l-.39.91a2.44,2.44,0,0,0-.19.94,1.61,1.61,0,0,0,.22.8,1.52,1.52,0,0,0,.58.6,1.67,1.67,0,0,0,.42.19,2.89,2.89,0,0,0,.54.07v.34h-5v-.34a3.3,3.3,0,0,0,.86-.19,3.16,3.16,0,0,0,.71-.44,7.09,7.09,0,0,0,1.81-2.72Zm-.93,2.87-2.4,5.48h4.86Z" transform="translate(-318.33 -186)"/><path class="cls-2" d="M410.46,313.22h8.34v.33h-.88a2.27,2.27,0,0,0-1.67.54,2.31,2.31,0,0,0-.54,1.69v9.4h3.17a3.89,3.89,0,0,0,1.77-.42,4.42,4.42,0,0,0,1.44-1.17,9.5,9.5,0,0,0,.65-.92,7,7,0,0,0,.53-1.11q.25-.65.5-1.49h.32v5.43H410.46l0-.33h.46a2,2,0,0,0,2.22-2.25v-7.15a2,2,0,0,0-2.22-2.23h-.44Z" transform="translate(-318.33 -186)"/><path class="cls-2" d="M425.26,313.22h13V318H438a14.08,14.08,0,0,0-.64-1.87,5.34,5.34,0,0,0-.74-1.17,3.29,3.29,0,0,0-1.2-.94,6.81,6.81,0,0,0-2.62-.45H430.4v5.84H431a2.64,2.64,0,0,0,2.29-1.25,4.54,4.54,0,0,0,.65-1.53,8,8,0,0,0,.19-1.12h.31v8.05h-.31q-.11-.65-.25-1.23a4.71,4.71,0,0,0-.32-.94,4.29,4.29,0,0,0-.46-.72,2.72,2.72,0,0,0-2.24-1h-.51v5.49h2A9.09,9.09,0,0,0,434,325a5.07,5.07,0,0,0,1.28-.39,4.69,4.69,0,0,0,1.07-.7,4.92,4.92,0,0,0,1.33-1.82,13.56,13.56,0,0,0,.57-1.69h.32v5.05H425.28l0-.33h.33a2,2,0,0,0,2.22-2.25v-7.15a1.94,1.94,0,0,0-2.22-2.23h-.33Z" transform="translate(-318.33 -186)"/><path class="cls-2" d="M440,313.22h8v.33h-.16a2.3,2.3,0,0,0-1.06.21.63.63,0,0,0-.4.57,1.25,1.25,0,0,0,.13.49,2.72,2.72,0,0,0,.34.56l2.47,2.87,1.93-2a2.06,2.06,0,0,0,.7-1.34,1.14,1.14,0,0,0-.52-1,2.74,2.74,0,0,0-1.5-.39v-.33h6.57v.33a6.92,6.92,0,0,0-2,.62,10.44,10.44,0,0,0-2.79,2.07l-2.19,2.25,4.07,4.77a6.85,6.85,0,0,0,1.62,1.42,3.06,3.06,0,0,0,1.57.51H457v.33h-8.14v-.33h.7a2.54,2.54,0,0,0,1.16-.22.66.66,0,0,0,.41-.59,1.35,1.35,0,0,0-.43-.88l-2.83-3.33-2,2.07a6.58,6.58,0,0,0-.5.58,1.86,1.86,0,0,0-.28.5,1.52,1.52,0,0,0-.08.5,1.17,1.17,0,0,0,.52,1,2.47,2.47,0,0,0,1.45.37h.36v.33H440v-.33a7.42,7.42,0,0,0,1.23-.25,8.94,8.94,0,0,0,1.13-.45,10.29,10.29,0,0,0,2.84-2l2.45-2.5-4.05-4.69a4.23,4.23,0,0,0-3.28-1.7H440Z" transform="translate(-318.33 -186)"/><path class="cls-2" d="M463.75,313.22h13V318h-.26a14.08,14.08,0,0,0-.64-1.87,5.34,5.34,0,0,0-.74-1.17,3.29,3.29,0,0,0-1.2-.94,6.81,6.81,0,0,0-2.62-.45h-2.41v5.84h.65a2.64,2.64,0,0,0,2.29-1.25,4.54,4.54,0,0,0,.65-1.53,8,8,0,0,0,.19-1.12H473v8.05h-.31q-.11-.65-.25-1.23a4.71,4.71,0,0,0-.32-.94,4.29,4.29,0,0,0-.46-.72,2.72,2.72,0,0,0-2.24-1h-.51v5.49h2a9.09,9.09,0,0,0,1.61-.13,5.07,5.07,0,0,0,1.28-.39,4.69,4.69,0,0,0,1.07-.7,4.92,4.92,0,0,0,1.33-1.82,13.56,13.56,0,0,0,.57-1.69h.32v5.05H463.76l0-.33h.33a2,2,0,0,0,2.22-2.25v-7.15a1.94,1.94,0,0,0-2.22-2.23h-.33Z" transform="translate(-318.33 -186)"/><path class="cls-2" d="M478.51,313.22h8.12a10.84,10.84,0,0,1,3.45.5,6.16,6.16,0,0,1,2.48,1.52,6.41,6.41,0,0,1,1.41,2,5.62,5.62,0,0,1,.5,2.29,5.39,5.39,0,0,1-.54,2.39,5.59,5.59,0,0,1-1.51,1.9,7,7,0,0,1-2.32,1.23,9.31,9.31,0,0,1-2.9.44h-8.69v-.34H479a2,2,0,0,0,2.22-2.23v-7.15a1.94,1.94,0,0,0-2.22-2.23h-.45Zm5.25.33v11.61h2.36a10.83,10.83,0,0,0,1.71-.11,4.33,4.33,0,0,0,1.23-.37A3.19,3.19,0,0,0,490,324a6.31,6.31,0,0,0,1.45-4.57,9.82,9.82,0,0,0-.18-1.91,6.31,6.31,0,0,0-.52-1.59,4.6,4.6,0,0,0-.86-1.2,3.61,3.61,0,0,0-1-.68,4.52,4.52,0,0,0-1.24-.37,10.77,10.77,0,0,0-1.69-.11Z" transform="translate(-318.33 -186)"/><path class="cls-2" d="M496.69,325.16H497a2,2,0,0,0,2.22-2.23v-7.42a3.56,3.56,0,0,0-.21-.92,1.41,1.41,0,0,0-.43-.57,2.31,2.31,0,0,0-1.58-.47h-.34v-.33h7.7v.33h-.34a2.27,2.27,0,0,0-1.67.54,2.31,2.31,0,0,0-.54,1.69v7.15a2.3,2.3,0,0,0,.55,1.68,2.26,2.26,0,0,0,1.67.55h.34v.34h-7.7Z" transform="translate(-318.33 -186)"/><path class="cls-2" d="M505.88,313.22h14.34v6.23l-.28,0a8.18,8.18,0,0,0-1.4-4,4.25,4.25,0,0,0-3.55-1.91h-.64v9.38a2,2,0,0,0,2.21,2.23h1.85v.34H507.73v-.34h1.83a2,2,0,0,0,2.22-2.23v-9.38H511a4.12,4.12,0,0,0-3.55,2.06,7.66,7.66,0,0,0-1,2.41,13.76,13.76,0,0,0-.23,1.44h-.31Z" transform="translate(-318.33 -186)"/><path class="cls-2" d="M521.9,325.16h.34a2,2,0,0,0,2.22-2.23v-7.42a3.52,3.52,0,0,0-.21-.92,1.41,1.41,0,0,0-.43-.57,2.31,2.31,0,0,0-1.58-.47h-.34v-.33h7.7v.33h-.34a2.27,2.27,0,0,0-1.67.54,2.31,2.31,0,0,0-.54,1.69v7.15a2.3,2.3,0,0,0,.55,1.68,2.26,2.26,0,0,0,1.67.55h.34v.34h-7.7Z" transform="translate(-318.33 -186)"/><path class="cls-2" d="M538.92,313a8.64,8.64,0,0,1,3.14.55,7,7,0,0,1,2.47,1.6,6.62,6.62,0,0,1,1.37,2,5.63,5.63,0,0,1-.5,5.44,6.86,6.86,0,0,1-2.65,2.31,8,8,0,0,1-3.67.85,8.4,8.4,0,0,1-2.87-.48,7.44,7.44,0,0,1-2.37-1.37,6.41,6.41,0,0,1-1.6-2.06,5.6,5.6,0,0,1,.42-5.64,7,7,0,0,1,2.65-2.34A7.7,7.7,0,0,1,538.92,313Zm.23.32a4.09,4.09,0,0,0-1.5.28,3.25,3.25,0,0,0-1.19.79,5.23,5.23,0,0,0-.9,1.31,7,7,0,0,0-.56,1.7,10.28,10.28,0,0,0-.19,2,9.57,9.57,0,0,0,.3,2.46,6.05,6.05,0,0,0,.86,1.92,3.88,3.88,0,0,0,1.34,1.23,3.78,3.78,0,0,0,4-.32,4.64,4.64,0,0,0,1.47-2.12,9.42,9.42,0,0,0,.51-3.28A9.05,9.05,0,0,0,543,317a6.26,6.26,0,0,0-.8-1.87,4.2,4.2,0,0,0-1.27-1.26,3.28,3.28,0,0,0-.85-.4A3.13,3.13,0,0,0,539.15,313.29Z" transform="translate(-318.33 -186)"/><path class="cls-2" d="M548.3,313.22h4.91l8.5,8.84v-5.29a4.08,4.08,0,0,0-.33-1.69,2.42,2.42,0,0,0-1-1.1,2.37,2.37,0,0,0-.67-.3,5.51,5.51,0,0,0-.94-.13v-.33h6.06v.33h-.12a2.45,2.45,0,0,0-2,.84,3.79,3.79,0,0,0-.69,2.45v8.78h-.29l-10.56-10.89V322a4.67,4.67,0,0,0,.25,1.7,2,2,0,0,0,.82,1,2.8,2.8,0,0,0,1.13.36,8.86,8.86,0,0,0,1.05.09v.33h-6.38v-.33a4.28,4.28,0,0,0,1.6-.35,1.91,1.91,0,0,0,.91-.87,3.18,3.18,0,0,0,.29-1.44v-6.94a2,2,0,0,0-.28-1.09,1.83,1.83,0,0,0-.83-.69,3.22,3.22,0,0,0-1.31-.24h-.16Z" transform="translate(-318.33 -186)"/><rect class="cls-3" x="479.65" y="240.7" width="3.67" height="32.33" transform="translate(-363.79 -71.04) rotate(-13.01)"/><circle class="cls-2" cx="156.33" cy="39" r="17"/><circle class="cls-4" cx="156.33" cy="38.67" r="13.75"/><circle class="cls-5" cx="474.67" cy="224.67" r="10.07" transform="translate(-338.17 215.44) rotate(-45)"/><circle class="cls-3" cx="156.33" cy="38.67" r="7.81"/></svg>