<svg id="Layer_1" data-name="Layer 1" xmlns="http://www.w3.org/2000/svg" viewBox="0 0 323.33 187.33"><defs><style>.cls-1{fill:#031d44;}.cls-2,.cls-5{font-size:36px;font-family:DancingScript-Regular, Dancing Script;}.cls-10,.cls-12,.cls-2,.cls-5{fill:#fff;}.cls-3{letter-spacing:-0.01em;}.cls-4{letter-spacing:-0.01em;}.cls-5{letter-spacing:-0.01em;}.cls-6{letter-spacing:-0.02em;}.cls-7{letter-spacing:-0.02em;}.cls-8{letter-spacing:-0.05em;}.cls-9{letter-spacing:0em;}.cls-10{font-size:18px;font-family:EngraversMT, Engravers MT;}.cls-11{fill:#f9ff00;}.cls-13{fill:red;}.cls-14{fill:#0258d3;}</style></defs><title>Hans och Greta logo</title><rect class="cls-1" width="323.33" height="187.33"/><text class="cls-2" transform="translate(24 48)">H<tspan class="cls-3" x="22.21" y="0">A</tspan><tspan class="cls-4" x="43.09" y="0">N</tspan><tspan x="65.84" y="0">S </tspan></text><text class="cls-5" transform="translate(206.64 48)">G<tspan class="cls-6" x="19.66" y="0">R</tspan><tspan class="cls-7" x="39.56" y="0">E</tspan><tspan class="cls-8" x="56.88" y="0">T</tspan><tspan class="cls-9" x="72.72" y="0">A</tspan></text><text class="cls-10" transform="translate(75.88 139.5)">ALEX EDITION</text><path class="cls-11" d="M472.27,240.7l.39,35a.25.25,0,0,1,.07.2.27.27,0,0,1,0,.16s0,.06,0,.09a.24.24,0,0,1,.05.14.24.24,0,0,1,0,.16s0,0,0,.07,0,0,0,0a.23.23,0,0,1,.06.17.24.24,0,0,1,0,.13h0s0,0,0,0h0s0,.07,0,.11a.21.21,0,0,1,.07.11h3V240.7Z" transform="translate(-318.33 -186)"/><path class="cls-11" d="M488.3,275.19c1.45,4.21-6,3.3-11.46,3.3s-4.21-3.12-4.21-7.48,1.21,2.45,6.25,4C484.19,276.75,488,274.3,488.3,275.19Z" transform="translate(-318.33 -186)"/><circle class="cls-12" cx="156.33" cy="39" r="17"/><circle class="cls-13" cx="156.33" cy="38.67" r="13.75"/><circle class="cls-14" cx="474.67" cy="224.67" r="10.07" transform="translate(-338.17 215.44) rotate(-45)"/><circle class="cls-11" cx="156.33" cy="38.67" r="7.81"/></svg>